<svg width="40" height="40" xmlns="http://www.w3.org/2000/svg"><g fill="none" fill-rule="evenodd"><circle fill="#141414" cx="20" cy="20" r="19"/><path d="M20 0C8.954 0 0 8.954 0 20s8.954 20 20 20 20-8.954 20-20S31.046 0 20 0zm0 2c9.941 0 18 8.059 18 18s-8.059 18-18 18S2 29.941 2 20 10.059 2 20 2z" fill="#FFF" fill-rule="nonzero"/><path d="M24.744 22.979L28.156 20l-3.412-2.979a.907.907 0 01-.033-1.335l.042-.04a1 1 0 011.362-.025l4.054 3.634a1 1 0 010 1.49l-4.054 3.634a1 1 0 01-1.362-.024l-.042-.04a.907.907 0 01.033-1.336zm-9.488 0L11.844 20l3.412-2.979a.907.907 0 00.033-1.335l-.042-.04a1 1 0 00-1.362-.025l-4.054 3.634a1 1 0 000 1.49l4.054 3.634a1 1 0 001.362-.024l.042-.04a.907.907 0 00-.033-1.336z" fill="#FFF"/></g></svg>